<?xml version="1.0" encoding="UTF-8" standalone="no"?>
<!-- Created with Inkscape (http://www.inkscape.org/) -->

<svg
   xmlns:dc="http://purl.org/dc/elements/1.1/"
   xmlns:cc="http://creativecommons.org/ns#"
   xmlns:rdf="http://www.w3.org/1999/02/22-rdf-syntax-ns#"
   xmlns:svg="http://www.w3.org/2000/svg"
   xmlns="http://www.w3.org/2000/svg"
   xmlns:sodipodi="http://sodipodi.sourceforge.net/DTD/sodipodi-0.dtd"
   xmlns:inkscape="http://www.inkscape.org/namespaces/inkscape"
   viewBox="0 0 140.39076 136.19733"
   version="1.1"
   id="svg940"
   inkscape:version="0.92.3 (unknown)"
   sodipodi:docname="morse-code.svg">
  <defs
     id="defs934" />
  <sodipodi:namedview
     id="base"
     pagecolor="#ffffff"
     bordercolor="#666666"
     borderopacity="1.0"
     inkscape:pageopacity="0.0"
     inkscape:pageshadow="2"
     inkscape:zoom="0.7"
     inkscape:cx="118.95355"
     inkscape:cy="359.17671"
     inkscape:document-units="mm"
     inkscape:current-layer="g5862"
     showgrid="false"
     inkscape:window-width="1301"
     inkscape:window-height="744"
     inkscape:window-x="65"
     inkscape:window-y="24"
     inkscape:window-maximized="1" />
  <metadata
     id="metadata937">
    <rdf:RDF>
      <cc:Work
         rdf:about="">
        <dc:format>image/svg+xml</dc:format>
        <dc:type
           rdf:resource="http://purl.org/dc/dcmitype/StillImage" />
        <dc:title></dc:title>
      </cc:Work>
    </rdf:RDF>
  </metadata>
  <g
     id="g5964"
     transform="matrix(0.26458333,0,0,0.26458333,-22.819353,34.219091)">
    <path
       style="fill:#303c42"
       d="m 278.60657,172.09657 c -4.956,-24.314 -26.492,-42.667 -52.255,-42.667 -25.763,0 -47.299,18.353 -52.255,42.667 -1.078,21.333 0,0 -1.078,21.333 v 85.333 H 98.351576 c -5.896,0 -10.667,4.771 -10.667,10.667 v 85.333 c 0,5.896 4.771,10.667 10.667,10.667 H 418.35157 c 5.896,0 10.667,-4.771 10.667,-10.667 v -85.333 c 0,-5.896 -4.771,-10.667 -10.667,-10.667 h -32 v -32 c 0,-5.896 -4.771,-10.667 -10.667,-10.667 h -42.667 c -5.896,0 -10.667,4.771 -10.667,10.667 v 32 h -42.666 v -85.333 z"
       id="path5838"
       inkscape:connector-curvature="0"
       sodipodi:nodetypes="cscccsssssssscsssscccc" />
    <g
       id="morseHandle"
       inkscape:label="morseHandle"
       transform="translate(20.16142,63.64186)">
      <path
         sodipodi:nodetypes="ccccccccsccscccscccssscsccssscccc"
         inkscape:connector-curvature="0"
         id="path5838-3"
         d="m 576.50195,92.442154 c -1.958,-3.146 -5.396,-5.061997 -9.083,-5.061997 l -106.667,0.01 c -3.688,0 -7.125,1.916997 -9.083,5.062997 -1.938,3.146 -2.104,7.073 -0.458,10.374996 l 26.104,52.19801 c 5.051,10.141 14.947,16.462 26.104,17.348 v 21.684 h -22.896 c -8.125,0 -15.438,-4.521 -19.083,-11.792 l -24.958,-49.96901 c -7.292,-14.542 -21.917,-23.573 -38.167,-23.573 h -141.308 c -104.51,0 0,0 -104.51,0 H 76.751953 c -5.896,-10e-4 -10.667,4.77 -10.667,10.666 0,5.896 4.771,10.667 10.667,10.667 181.332997,0 81.238407,0.79421 181.332997,0 h 64 v 10.66701 c 0,5.896 4.771,10.667 10.667,10.667 5.896,0 10.667,-4.771 10.667,-10.667 v -10.66701 h 54.896 c 8.125,0 15.437,4.52101 19.083,11.79201 l 24.958,49.969 c 7.292,14.541 21.917,23.572 38.167,23.572 h 33.562 c 5.896,0 10.667,-4.771 10.667,-10.667 v -32.35 c 11.158,-0.885 21.053,-7.207 26.104,-17.337 l 26.104,-52.21901 c 1.646,-3.312996 1.479,-7.239996 -0.458,-10.374996 z"
         style="fill:#303c42" />
      <path
         inkscape:connector-curvature="0"
         id="path5852"
         d="m 533.11657,144.87757 c -1.813,3.635 -5.458,5.885 -9.542,5.885 h -16.292 c -4.083,0 -7.729,-2.25 -9.542,-5.896 l -18.396,-36.771 72.167,-0.01 z"
         style="fill:#72808a" />
      <path
         inkscape:connector-curvature="0"
         id="path5854"
         d="m 504.97157,144.86757 -10.876,-36.771 21.333,-0.005 -36.083,0.005 18.396,36.771 c 1.813,3.646 5.458,5.896 9.542,5.896 h 3.329 c -2.414,0 -4.569,-2.25 -5.641,-5.896 z"
         style="opacity:0.2;fill:#ffffff;enable-background:new" />
      <path
         inkscape:connector-curvature="0"
         id="path5856"
         d="m 536.76157,108.08857 -10.876,36.789 c -1.072,3.635 -3.227,5.885 -5.641,5.885 h 3.329 c 4.083,0 7.729,-2.25 9.542,-5.885 l 18.396,-36.792 z"
         style="opacity:0.1;enable-background:new" />
    </g>
    <g
       id="g5844"
       transform="translate(87.589993,-105.59457)">
	<rect
   id="rect5840"
   height="21.333"
   width="21.333"
   style="fill:#72808a"
   y="362.66699"
   x="256" />

	<rect
   id="rect5842"
   height="64"
   width="298.66699"
   style="fill:#72808a"
   y="405.33301"
   x="21.333" />

</g>
    <path
       style="opacity:0.1;enable-background:new"
       d="m 386.25699,299.73843 v 16.958 c 0,14.198 -11.51,25.708 -25.708,25.708 h -251.626 v 21.333 h 298.667 v -64 h -21.333 z"
       id="path5846"
       inkscape:connector-curvature="0" />
    <path
       style="fill:#72808a"
       d="m 194.25699,278.40543 v -96 c 0,-17.646 14.354,-32 32,-32 17.646,0 32,14.354 32,32 v 96 z"
       id="path5848"
       inkscape:connector-curvature="0" />
    <path
       style="opacity:0.2;fill:#ffffff;enable-background:new"
       d="m 204.92299,203.73843 c 0,-17.646 14.354,-32 32,-32 8.105,0 15.431,3.126 21.076,8.111 -1.328,-16.435 -14.971,-29.444 -31.742,-29.444 -17.646,0 -32,14.354 -32,32 v 96 h 10.667 v -74.667 z"
       id="path5850"
       inkscape:connector-curvature="0" />
    <g
       id="g5862"
       transform="translate(168.85715,-150.665)">
	<circle
   id="circle5858"
   r="10.667"
   cy="334.49896"
   cx="54.542709"
   style="fill:#303c42" />

	<path
   id="path5860"
   d="m 241.25,233.854 c 1.313,0.552 2.708,0.813 4.083,0.813 2.771,0 5.5,-1.083 7.542,-3.125 L 292.417,192 H 416 c 17.646,0 32,-14.354 32,-32 V 53.333 c 0,-17.646 -14.354,-32 -32,-32 H 266.667 c -17.646,0 -32,14.354 -32,32 V 224 c 0,4.312 2.604,8.208 6.583,9.854 z"
   style="fill:#303c42"
   inkscape:connector-curvature="0" />

</g>
    <path
       style="fill:#00aae7"
       d="m 424.85714,-97.332001 c 0,-5.884999 4.792,-10.666999 10.667,-10.666999 h 149.333 c 5.875,0 10.667,4.781 10.667,10.666999 V 9.3350002 c 0,5.8849998 -4.792,10.6669998 -10.667,10.6669998 h -128 c -2.833,0 -5.542,1.125 -7.542,3.125 l -24.458,24.458 z"
       id="path5864"
       inkscape:connector-curvature="0" />
    <path
       style="opacity:0.2;fill:#ffffff;enable-background:new"
       d="m 435.52414,-86.665001 c 0,-5.885 4.792,-10.667 10.667,-10.667 h 149.333 c 0,-5.884999 -4.792,-10.666999 -10.667,-10.666999 h -149.333 c -5.875,0 -10.667,4.781 -10.667,10.666999 V 47.585 l 10.667,-10.667 z"
       id="path5866"
       inkscape:connector-curvature="0" />
    <g
       id="morseMessage"
       transform="translate(168.85715,-150.665)"
       inkscape:label="morseMessage">
	<circle
   id="circle5868"
   r="10.667"
   cy="74.667"
   cx="288"
   style="fill:#303c42" />

	<circle
   id="circle5870"
   r="10.667"
   cy="138.66701"
   cx="352"
   style="fill:#303c42" />

	<circle
   id="circle5872"
   r="10.667"
   cy="138.66701"
   cx="394.66699"
   style="fill:#303c42" />

	<circle
   id="circle5874"
   r="10.667"
   cy="74.667"
   cx="394.66699"
   style="fill:#303c42" />

	<path
   id="path5876"
   d="M 330.667,85.333 H 352 c 5.896,0 10.667,-4.771 10.667,-10.667 C 362.667,68.771 357.896,64 352,64 H 330.667 C 324.771,64 320,68.771 320,74.667 c 0,5.895 4.771,10.666 10.667,10.666 z"
   style="fill:#303c42"
   inkscape:connector-curvature="0" />

	<path
   id="path5878"
   d="m 309.333,149.333 c 5.896,0 10.667,-4.771 10.667,-10.667 0,-5.896 -4.771,-10.667 -10.667,-10.667 H 288 c -5.896,0 -10.667,4.771 -10.667,10.667 0,5.896 4.771,10.667 10.667,10.667 z"
   style="fill:#303c42"
   inkscape:connector-curvature="0" />

</g>
    <path
       style="fill:url(#SVGID_1_)"
       d="m 641.84557,262.48057 c -1.958,-3.146 -5.396,-5.062 -9.083,-5.062 l -106.667,0.01 c -3.688,0 -7.125,1.917 -9.083,5.063 -1.938,3.146 -2.104,7.073 -0.458,10.375 l 26.104,52.198 c 5.051,10.141 14.947,16.462 26.104,17.348 v 21.684 h -22.896 c -8.125,0 -15.438,-4.521 -19.083,-11.792 l -24.958,-49.969 c -7.292,-14.542 -21.917,-23.573 -38.167,-23.573 h -141.308 c -4.956,-24.314 -26.492,-42.667 -52.255,-42.667 -25.763,0 -47.299,18.353 -52.255,42.667 h -75.745 c -5.896,-10e-4 -10.667,4.77 -10.667,10.666 0,5.896 4.771,10.667 10.667,10.667 h 74.667 v 85.333 h -74.667 c -5.896,0 -10.667,4.771 -10.667,10.667 v 85.333 c 0,5.896 4.771,10.667 10.667,10.667 h 320 c 5.896,0 10.667,-4.771 10.667,-10.667 v -85.333 c 0,-5.896 -4.771,-10.667 -10.667,-10.667 h -32 v -32 c 0,-5.896 -4.771,-10.667 -10.667,-10.667 h -42.667 c -5.896,0 -10.667,4.771 -10.667,10.667 v 32 h -42.666 v -85.333 h 64 v 10.667 c 0,5.896 4.771,10.667 10.667,10.667 5.896,0 10.667,-4.771 10.667,-10.667 v -10.667 h 54.896 c 8.125,0 15.437,4.521 19.083,11.792 l 24.958,49.969 c 7.292,14.541 21.917,23.572 38.167,23.572 h 33.562 c 5.896,0 10.667,-4.771 10.667,-10.667 v -32.35 c 11.158,-0.885 21.053,-7.207 26.104,-17.337 l 26.104,-52.219 c 1.646,-3.313 1.479,-7.24 -0.458,-10.375 z"
       id="path5974"
       inkscape:connector-curvature="0" />
    <path
       style="fill:url(#SVGID_1_)"
       d="m 410.10714,83.188999 c 1.313,0.552 2.708,0.813 4.083,0.813 2.771,0 5.5,-1.083 7.542,-3.125 l 39.542,-39.542 h 123.583 c 17.646,0 32,-14.354 32,-31.9999998 V -97.332002 c 0,-17.645998 -14.354,-31.999998 -32,-31.999998 h -149.333 c -17.646,0 -32,14.354 -32,31.999998 V 73.334999 c 0,4.312 2.604,8.208 6.583,9.854 z"
       id="path5887"
       inkscape:connector-curvature="0" />
    <g
       id="g5889">
</g>
    <g
       id="g5891">
</g>
    <g
       id="g5893">
</g>
    <g
       id="g5895">
</g>
    <g
       id="g5897">
</g>
    <g
       id="g5899">
</g>
    <g
       id="g5901">
</g>
    <g
       id="g5903">
</g>
    <g
       id="g5905">
</g>
    <g
       id="g5907">
</g>
    <g
       id="g5909">
</g>
    <g
       id="g5911">
</g>
    <g
       id="g5913">
</g>
    <g
       id="g5915">
</g>
    <g
       id="g5917">
</g>
  </g>
</svg>
